name C:/MyDriveSym/Projects/mobilecap/Data\Session20210825_0001\mocap\ForceDataProcessed\DJAsym2_forces.mot
datacolumns 28
datarows 6
range 1.73200000 1.73450000
endheader 
time	R_ground_force_vx	R_ground_force_vy	R_ground_force_vz	R_ground_force_px	R_ground_force_py	R_ground_force_pz	R_ground_torque_x	R_ground_torque_y	R_ground_torque_z	L_ground_force_vx	L_ground_force_vy	L_ground_force_vz	L_ground_force_px	L_ground_force_py	L_ground_force_pz	L_ground_torque_x	L_ground_torque_y	L_ground_torque_z	3_ground_force_vx	3_ground_force_vy	3_ground_force_vz	3_ground_force_px	3_ground_force_py	3_ground_force_pz	3_ground_torque_x	3_ground_torque_y	3_ground_torque_z	
          1.73200000	        -74.74511200	        629.94502500	        -57.10589000	         -0.14785100	          0.00600000	         -0.46113200	          0.00000000	         -3.28846000	          0.00000000	        -32.09224600	        434.85929800	         83.17940800	         -0.15411800	          0.00600000	         -0.73908900	          0.00000000	          1.21099000	          0.00000000	          0.00000000	          0.00000000	          0.00000000	          0.00000000	          0.00000000	          0.00000000	          0.00000000	          0.00000000	          0.00000000	
          1.73250000	        -74.95570600	        630.32155000	        -57.18725600	         -0.14782100	          0.00600000	         -0.46105800	          0.00000000	         -3.29384500	          0.00000000	        -32.45876000	        433.41250000	         82.89854300	         -0.15362300	          0.00600000	         -0.73911500	          0.00000000	          1.17617400	          0.00000000	          0.00000000	          0.00000000	          0.00000000	          0.00000000	          0.00000000	          0.00000000	          0.00000000	          0.00000000	          0.00000000	
          1.73300000	        -75.16519200	        630.69215700	        -57.26995800	         -0.14779100	          0.00600000	         -0.46098400	          0.00000000	         -3.29895900	          0.00000000	        -32.82262100	        431.96023200	         82.61186200	         -0.15312500	          0.00600000	         -0.73914100	          0.00000000	          1.14123000	          0.00000000	          0.00000000	          0.00000000	          0.00000000	          0.00000000	          0.00000000	          0.00000000	          0.00000000	          0.00000000	          0.00000000	
          1.73350000	        -75.37358400	        631.05656000	        -57.35394100	         -0.14776100	          0.00600000	         -0.46091000	          0.00000000	         -3.30378400	          0.00000000	        -33.18320800	        430.50421400	         82.31964200	         -0.15262200	          0.00600000	         -0.73916600	          0.00000000	          1.10616600	          0.00000000	          0.00000000	          0.00000000	          0.00000000	          0.00000000	          0.00000000	          0.00000000	          0.00000000	          0.00000000	          0.00000000	
          1.73400000	        -75.58089600	        631.41445200	        -57.43914300	         -0.14773100	          0.00600000	         -0.46083600	          0.00000000	         -3.30830400	          0.00000000	        -33.53984100	        429.04613200	         82.02217800	         -0.15211500	          0.00600000	         -0.73919000	          0.00000000	          1.07099600	          0.00000000	          0.00000000	          0.00000000	          0.00000000	          0.00000000	          0.00000000	          0.00000000	          0.00000000	          0.00000000	          0.00000000	
          1.73450000	        -75.78713900	        631.76553800	        -57.52549900	         -0.14770100	          0.00600000	         -0.46076100	          0.00000000	         -3.31250900	          0.00000000	        -33.89180000	        427.58761700	         81.71978300	         -0.15160500	          0.00600000	         -0.73921400	          0.00000000	          1.03573300	          0.00000000	          0.00000000	          0.00000000	          0.00000000	          0.00000000	          0.00000000	          0.00000000	          0.00000000	          0.00000000	          0.00000000	
